<svg xmlns:xlink="http://www.w3.org/1999/xlink" xmlns="http://www.w3.org/2000/svg" width="175" height="315" viewBox="0 0 175 315" fill="none"><path d="M63.4324 314.819C63.3123 314.819 63.2102 314.777 63.1261 314.693C63.042 314.609 63 314.506 63 314.386L63 302.632C63 302.5 63.036 302.391 63.1081 302.307C63.1922 302.223 63.3002 302.181 63.4324 302.181H68.2603C69.7015 302.181 70.8364 302.524 71.6651 303.21C72.4938 303.884 72.9081 304.877 72.9081 306.189C72.9081 307.501 72.4938 308.494 71.6651 309.168C70.8484 309.83 69.7135 310.161 68.2603 310.161H65.5761L65.5761 314.386C65.5761 314.506 65.5341 314.609 65.45 314.693C65.3779 314.777 65.2759 314.819 65.1438 314.819H63.4324ZM68.1702 308.157C68.8668 308.157 69.4012 307.994 69.7736 307.669C70.1459 307.332 70.332 306.839 70.332 306.189C70.332 305.563 70.1519 305.075 69.7916 304.726C69.4313 304.365 68.8908 304.185 68.1702 304.185H65.5401V308.157H68.1702Z" fill="#FFFFFF"></path><path d="M82.5132 314.819C82.3931 314.819 82.291 314.777 82.207 314.693C82.1229 314.609 82.0809 314.506 82.0809 314.386V302.632C82.0809 302.5 82.1169 302.391 82.189 302.307C82.273 302.223 82.3811 302.181 82.5132 302.181H87.1791C88.6443 302.181 89.7912 302.524 90.6199 303.21C91.4606 303.896 91.8809 304.871 91.8809 306.135C91.8809 307.013 91.6647 307.754 91.2324 308.356C90.812 308.945 90.2236 309.373 89.4669 309.637L92.0971 314.242C92.1331 314.314 92.1511 314.38 92.1511 314.44C92.1511 314.549 92.1091 314.639 92.025 314.711C91.953 314.783 91.8689 314.819 91.7728 314.819H90.1335C89.9413 314.819 89.7912 314.777 89.6831 314.693C89.587 314.609 89.497 314.488 89.4129 314.332L87.089 310.053H84.5849V314.386C84.5849 314.506 84.5429 314.609 84.4588 314.693C84.3868 314.777 84.2847 314.819 84.1526 314.819H82.5132ZM87.125 308.012C87.8456 308.012 88.386 307.85 88.7463 307.525C89.1186 307.2 89.3048 306.731 89.3048 306.117C89.3048 305.503 89.1186 305.027 88.7463 304.69C88.386 304.353 87.8456 304.185 87.125 304.185H84.5849V308.012H87.125Z" fill="#FFFFFF"></path><path d="M106.219 315C104.585 315 103.312 314.585 102.4 313.754C101.487 312.924 101.007 311.69 100.959 310.053C100.947 309.704 100.941 309.192 100.941 308.518C100.941 307.832 100.947 307.314 100.959 306.965C101.007 305.364 101.499 304.137 102.436 303.282C103.373 302.427 104.634 302 106.219 302C107.804 302 109.065 302.427 110.002 303.282C110.951 304.137 111.449 305.364 111.497 306.965C111.521 307.663 111.533 308.181 111.533 308.518C111.533 308.843 111.521 309.355 111.497 310.053C111.437 311.69 110.951 312.924 110.038 313.754C109.125 314.585 107.852 315 106.219 315ZM106.219 312.924C107.023 312.924 107.666 312.683 108.146 312.201C108.627 311.708 108.885 310.962 108.921 309.962C108.945 309.24 108.957 308.753 108.957 308.5C108.957 308.223 108.945 307.736 108.921 307.037C108.885 306.038 108.627 305.298 108.146 304.817C107.666 304.323 107.023 304.076 106.219 304.076C105.426 304.076 104.79 304.323 104.309 304.817C103.829 305.298 103.571 306.038 103.535 307.037C103.523 307.387 103.517 307.874 103.517 308.5C103.517 309.114 103.523 309.601 103.535 309.962C103.571 310.962 103.823 311.708 104.291 312.201C104.772 312.683 105.414 312.924 106.219 312.924Z" fill="#FFFFFF"></path><path d="M23 247.137H29.0974V276.683H23V247.137Z" fill="#FFFFFF"></path><path d="M46.5186 273.197C44.0796 273.197 41.902 272.849 39.9857 272.064C38.1564 271.28 36.6757 270.234 35.6304 268.752C34.5851 267.27 34.0625 265.527 34.0625 263.436C34.0625 261.431 34.5851 259.601 35.5433 258.119C36.5886 256.637 37.9823 255.504 39.8986 254.633C41.7278 253.848 43.9925 253.413 46.5186 253.413C47.2154 253.413 47.9122 253.5 48.522 253.587C49.2188 253.674 49.8286 253.761 50.4383 253.936L61.9362 254.023V258.468C60.3683 258.468 58.8004 258.293 57.2325 257.858C55.6646 257.422 54.1838 256.986 53.0515 256.55L52.8772 256.202C53.9225 256.725 54.8807 257.247 55.8388 258.032C56.7099 258.729 57.4938 259.601 58.0165 260.472C58.5391 261.431 58.8875 262.477 58.8875 263.697C58.8875 265.702 58.3649 267.358 57.4067 268.752C56.3615 270.147 54.9678 271.28 53.1386 271.977C51.2223 272.848 49.0446 273.197 46.5186 273.197ZM54.1838 286.009V284.876C54.1838 283.482 53.7483 282.523 52.8772 281.913C52.0062 281.39 50.7868 281.128 49.2189 281.128H42.1633C40.7696 281.128 39.6372 281.041 38.6791 280.78C37.7209 280.605 37.0241 280.257 36.5014 279.908C35.9788 279.472 35.5433 279.037 35.282 278.514C35.0207 277.991 34.9336 277.381 34.9336 276.771C34.9336 275.55 35.3691 274.592 36.1531 273.982C36.937 273.371 37.9822 272.936 39.3759 272.761C40.6825 272.587 42.1633 272.5 43.8183 272.587L46.6928 273.11C44.7765 273.197 43.3828 273.371 42.4246 273.633C41.4664 273.894 41.0309 274.417 41.0309 275.202C41.0309 275.637 41.2051 275.986 41.5535 276.248C41.902 276.509 42.4246 276.596 43.1215 276.596H50.5254C52.5289 276.596 54.271 276.858 55.7518 277.293C57.2325 277.729 58.2778 278.514 59.0618 279.56C59.8457 280.605 60.1941 282.087 60.1941 283.917V286.096H54.1838V286.009ZM46.5186 268.926C47.8251 268.926 48.9575 268.752 50.0028 268.316C50.9609 267.881 51.7449 267.27 52.2675 266.486C52.7902 265.702 53.0515 264.743 53.0515 263.61C53.0515 262.477 52.7902 261.431 52.2675 260.647C51.7449 259.862 50.9609 259.165 50.0028 258.729C49.0446 258.293 47.9122 258.032 46.5186 258.032C45.212 258.032 44.0796 258.293 43.0343 258.729C41.9891 259.165 41.2922 259.775 40.6825 260.647C40.1599 261.431 39.8986 262.477 39.8986 263.61C39.8986 264.743 40.1599 265.702 40.6825 266.486C41.2051 267.27 41.9891 267.881 42.9473 268.316C44.0796 268.665 45.212 268.926 46.5186 268.926Z" fill="#FFFFFF"></path><path d="M64.9844 253.935H70.9075V276.683H64.9844V253.935ZM81.4473 253.5C82.841 253.5 84.1476 253.674 85.3671 254.023C86.5865 254.371 87.6318 254.981 88.5028 255.679C89.3739 256.463 90.0707 257.422 90.5934 258.555C91.116 259.688 91.2902 261.082 91.2902 262.738V276.683H85.3671V263.871C85.3671 261.954 84.9315 260.559 83.9733 259.688C83.0152 258.816 81.5344 258.38 79.4438 258.38C77.8759 258.38 76.3952 258.729 75.1757 259.252C73.8691 259.862 72.8238 260.646 72.0399 261.518C71.2559 262.477 70.8204 263.435 70.6462 264.394L70.5591 262.041C70.7333 260.995 71.0817 259.949 71.6044 258.903C72.127 257.857 72.9109 256.986 73.782 256.114C74.7402 255.243 75.7855 254.633 77.092 254.11C78.3986 253.587 79.7923 253.5 81.4473 253.5Z" fill="#FFFFFF"></path><path d="M102.441 244V249.229H95.5596V244H102.441ZM96.0822 253.936H102.005V276.684H96.0822V253.936Z" fill="#FFFFFF"></path><path d="M105.402 253.935H122.998V258.555H105.402V253.935ZM111.238 247.747H117.162V276.683H111.238V247.747Z" fill="#FFFFFF"></path><path d="M146.255 269.101H152.004C151.743 270.669 151.133 272.064 150.088 273.284C149.043 274.504 147.649 275.463 145.82 276.16C143.99 276.858 141.813 277.206 139.287 277.206C136.412 277.206 133.799 276.77 131.621 275.812C129.357 274.853 127.702 273.546 126.395 271.802C125.176 270.059 124.566 267.88 124.566 265.44C124.566 262.913 125.176 260.821 126.395 258.991C127.615 257.247 129.27 255.853 131.447 254.894C133.625 253.935 136.151 253.5 139.112 253.5C142.074 253.5 144.6 253.935 146.516 254.894C148.52 255.853 150.001 257.247 150.959 259.165C151.917 261.082 152.352 263.523 152.178 266.486H130.576C130.75 267.619 131.186 268.665 131.883 269.624C132.58 270.582 133.538 271.28 134.844 271.89C136.064 272.413 137.545 272.674 139.287 272.674C141.203 272.674 142.771 272.325 143.99 271.715C145.123 271.018 145.907 270.146 146.255 269.101ZM138.764 257.945C136.586 257.945 134.757 258.468 133.451 259.426C132.057 260.385 131.186 261.605 130.837 263H146.255C146.081 261.518 145.384 260.298 144.077 259.339C142.771 258.468 141.029 257.945 138.764 257.945Z" fill="#FFFFFF"></path><path d="M87.4982 38.0789C97.4305 38.0789 106.732 41.942 113.748 48.9587L157.34 92.5567C164.355 99.5734 168.218 108.876 168.218 118.81C168.218 128.744 164.355 138.047 157.34 145.064L113.748 188.662C106.732 195.678 97.4305 199.541 87.4982 199.541C77.5658 199.541 68.2641 195.678 61.2484 188.662L17.6566 145.064C10.6409 138.047 6.77833 128.744 6.77833 118.81C6.77833 108.876 10.6409 99.5734 17.6566 92.5567L61.2484 48.9587C68.2641 41.942 77.5658 38.0789 87.4982 38.0789ZM87.4982 31.3776C76.3046 31.3776 65.0322 35.6349 56.5187 44.2283L12.9269 87.8264C-4.17876 104.934 -4.17876 132.686 12.9269 149.873L56.5187 193.471C65.111 202.064 76.3046 206.322 87.4982 206.322C98.6917 206.322 109.964 202.064 118.478 193.471L162.069 149.873C179.175 132.765 179.175 105.013 162.069 87.8264L118.478 44.2283C109.964 35.6349 98.7706 31.3776 87.4982 31.3776Z" fill="#0B733B"></path><path d="M162.15 149.873L118.479 193.471C101.374 210.579 73.6263 210.579 56.4418 193.471L12.8499 149.873C-0.235506 136.785 -3.30979 117.549 3.54825 101.544C5.6766 100.992 7.88375 100.756 10.1698 100.756C25.2259 100.756 37.3654 112.976 37.3654 127.955C37.3654 132.134 36.4195 135.997 34.7641 139.545C36.8924 138.835 39.0996 138.441 41.4645 138.441C51.2391 138.441 59.4372 145.142 61.6444 154.209C62.3539 154.051 63.0633 154.051 63.8516 154.051C71.4191 154.051 77.5677 160.043 77.883 167.533C80.7996 166.035 84.0316 165.167 87.5 165.167C90.9684 165.167 94.2792 166.035 97.117 167.533C97.4323 160.043 103.581 154.051 111.148 154.051C111.858 154.051 112.646 154.13 113.356 154.209C115.563 145.142 123.761 138.441 133.536 138.441C135.9 138.441 138.108 138.835 140.236 139.545C138.58 135.997 137.635 132.134 137.635 127.955C137.635 112.897 149.774 100.756 164.83 100.756C167.116 100.756 169.323 101.071 171.452 101.544C178.31 117.47 175.235 136.785 162.15 149.873Z" fill="url(&quot;#paint0_radial&quot;)"></path><path d="M97.2741 122.911H87.4994H77.8035L69.6055 196.231H87.4994H105.393L97.2741 122.911Z" fill="url(&quot;#paint1_linear&quot;)"></path><path d="M92.1518 122.911H87.501H82.9289L79.0664 196.231H87.501H96.0144L92.1518 122.911Z" fill="url(&quot;#paint2_linear&quot;)"></path><path d="M87.4994 0.00012207C82.2968 0.00012207 69.6055 26.4112 69.6055 37.8429C69.6055 58.1834 69.6055 118.811 69.6055 118.811H87.4994H105.393C105.393 118.811 105.393 58.1834 105.393 37.8429C105.393 26.4901 92.7809 0.00012207 87.4994 0.00012207Z" fill="#FFFFFF"></path><path d="M98.5342 27.1207C97.8247 26.5688 94.6716 24.2036 87.4983 24.2036C80.2461 24.2036 77.093 26.5688 76.4624 27.1207C76.3835 27.1995 76.3047 27.2783 76.3047 27.436V29.407C76.3047 29.7224 76.6988 29.9589 76.9353 29.7223C78.1965 28.8551 81.4285 27.1995 87.4983 27.1995C93.568 27.1995 96.7999 28.8551 98.0612 29.7223C98.3765 29.88 98.6918 29.7224 98.6918 29.407V27.436C98.6918 27.3572 98.6918 27.1995 98.5342 27.1207Z" fill="#04D361"></path><path d="M69.6056 85.3829C69.6056 85.3829 48.0856 102.57 46.7455 127.168C46.6667 128.508 48.0068 129.612 49.268 129.139C55.5742 127.168 59.9098 118.811 69.6056 118.811V85.3829Z" fill="#04D361"></path><path d="M105.395 85.3829C105.395 85.3829 126.915 102.57 128.255 127.168C128.333 128.508 126.993 129.612 125.732 129.139C119.426 127.168 115.09 118.811 105.395 118.811V85.3829Z" fill="#04D361"></path><path d="M87.4994 118.811H69.6055L73.468 127.089C73.468 127.089 84.1098 128.193 87.4994 128.193C90.889 128.193 101.531 127.089 101.531 127.089L105.393 118.811H87.4994Z" fill="#04D361"></path><path d="M87.4996 85.3829C85.5289 85.3829 83.1641 105.881 83.1641 127.956C83.1641 131.425 85.3712 134.894 87.4996 134.894C89.7068 134.894 91.8351 131.425 91.8351 127.956C91.914 105.881 89.4703 85.3829 87.4996 85.3829Z" fill="#04D361"></path><path d="M79.1436 216.57L67.3983 204.823C62.7474 200.172 62.7474 192.761 67.3983 188.11L79.1436 176.363C83.7945 171.711 91.2043 171.711 95.8552 176.363L107.601 188.11C112.251 192.761 112.251 200.172 107.601 204.823L95.8552 216.57C91.2831 221.143 83.7945 221.143 79.1436 216.57Z" fill="#06B656"></path><path d="M96.0915 185.744L93.2537 185.35C93.1749 185.35 93.0961 185.35 93.0173 185.429L91.8348 187.006C91.756 187.084 91.756 187.242 91.756 187.321C91.756 187.4 91.6771 187.557 91.5983 187.479L90.5736 187.242C90.4159 187.242 90.2582 187.242 90.1794 187.4L86.238 192.445C86.1592 192.524 86.0016 192.603 85.9227 192.524L84.425 191.815C84.2673 191.736 84.1097 191.736 84.0309 191.815L83.2426 192.367C83.0849 192.445 82.9273 192.445 82.8484 192.367L82.4543 192.209C82.2178 192.051 81.9025 192.209 81.9025 192.445L81.666 193.628C81.5872 193.943 81.7449 194.18 81.9813 194.338L82.5331 194.653L84.3462 195.757L85.2133 196.309C85.4498 196.466 85.7651 196.466 86.0015 196.23L87.4993 194.89C87.657 194.811 87.8146 194.732 87.9722 194.811L88.4452 195.047C88.6029 195.126 88.7605 195.126 88.9182 194.968L89.7065 194.259C89.8641 194.18 90.0218 194.101 90.1794 194.18L91.283 194.732C91.4407 194.811 91.6772 194.732 91.756 194.574L92.3078 193.943L96.2492 188.898C96.4068 188.661 96.328 188.346 96.0127 188.267L95.1456 188.109C94.9879 188.031 94.9091 187.873 94.988 187.715L96.328 186.06C96.4068 185.981 96.2492 185.744 96.0915 185.744Z" fill="#FFFFFF"></path><path d="M83.0834 195.915C83.0046 195.836 82.9258 195.915 82.9258 195.994L83.3199 197.097C83.3199 197.176 83.3199 197.255 83.3199 197.334L82.9258 198.753C82.9258 198.832 82.9258 198.911 83.0046 198.989L84.0294 199.778C84.1082 199.857 84.2659 199.857 84.3447 199.778L85.4483 198.832C85.5271 198.753 85.6059 198.753 85.6848 198.753L86.946 198.595C87.0249 198.595 87.0248 198.438 87.0248 198.438L83.0834 195.915Z" fill="#FFFFFF"></path><path d="M82.6907 199.62C82.6118 199.541 82.533 199.541 82.4542 199.62L81.5871 200.014C81.5083 200.014 81.5082 200.093 81.5082 200.172L79.6164 204.823C79.6164 204.823 79.6164 204.823 79.6952 204.823L80.0893 204.665C80.0893 204.665 80.0893 204.665 80.1682 204.665V204.744L78.8281 206.952C78.8281 207.031 78.8281 207.031 78.9069 207.031L83.7943 202.064C83.8731 201.985 83.8731 201.985 83.8731 201.906L83.9519 200.645C83.9519 200.566 83.9519 200.487 83.8731 200.408L82.6907 199.62Z" fill="#FFFFFF"></path><defs><radialGradient id="paint0_radial" cx="0" cy="0" r="1" gradientUnits="userSpaceOnUse" gradientTransform="translate(87.2768 118.177) scale(112.838 112.854)"><stop stop-color="#68E5A0"></stop><stop offset="0.00567427" stop-color="#04D361"></stop><stop offset="0.584253" stop-color="#04D361" stop-opacity="0"></stop></radialGradient><linearGradient id="paint1_linear" x1="87.5158" y1="122.923" x2="87.5158" y2="219.029" gradientUnits="userSpaceOnUse"><stop stop-color="#06B656"></stop><stop offset="0.380208" stop-color="#08994A" stop-opacity="0"></stop></linearGradient><linearGradient id="paint2_linear" x1="87.5174" y1="122.923" x2="87.5174" y2="219.029" gradientUnits="userSpaceOnUse"><stop stop-color="#06B656"></stop><stop offset="0.4633" stop-color="#08994A" stop-opacity="0"></stop></linearGradient><radialGradient id="paint0_radial" cx="0" cy="0" r="1" gradientUnits="userSpaceOnUse" gradientTransform="translate(87.2768 118.177) scale(112.838 112.854)"><stop stop-color="#68E5A0"></stop><stop offset="0.00567427" stop-color="#04D361"></stop><stop offset="0.584253" stop-color="#04D361" stop-opacity="0"></stop></radialGradient><linearGradient id="paint1_linear" x1="87.5158" y1="122.923" x2="87.5158" y2="219.029" gradientUnits="userSpaceOnUse"><stop stop-color="#06B656"></stop><stop offset="0.380208" stop-color="#08994A" stop-opacity="0"></stop></linearGradient><linearGradient id="paint2_linear" x1="87.5174" y1="122.923" x2="87.5174" y2="219.029" gradientUnits="userSpaceOnUse"><stop stop-color="#06B656"></stop><stop offset="0.4633" stop-color="#08994A" stop-opacity="0"></stop></linearGradient></defs></svg>